<?xml version="1.0" encoding="utf-8"?>
<!-- Generator: Adobe Illustrator 26.5.0, SVG Export Plug-In . SVG Version: 6.00 Build 0)  -->
<svg version="1.1" id="Capa_1" xmlns="http://www.w3.org/2000/svg" xmlns:xlink="http://www.w3.org/1999/xlink" x="0px" y="0px"
	 viewBox="0 0 400 400" style="enable-background:new 0 0 400 400;" xml:space="preserve">
<style type="text/css">
	.st0{fill:none;}
	.st1{fill:#009247;}
</style>
<rect x="14.2" y="49.4" class="st0" width="371.6" height="301.2"/>
<g>
	<g id="Grupo_41">
		<path id="Trazado_57" class="st1" d="M30,282.2c0.8-9.9,7.2-18.4,16.4-21.9c1.9-0.5,3.1-2.3,2.7-4.2c-1.2-17.6,1.3-35.2,7.2-51.8
			c16.3-41.1,46.1-66.2,89.6-75c4.4-0.9,8.8-1.4,13.3-1.5c5.6,0.4,11.2,0.2,16.8-0.6l-0.1-0.1c1.2-3.5,1.2-7.3,0-10.8l-34-0.2
			c-7.1,0-9.6-2.4-9.6-9.5c0-3.7-0.1-7.5,0-11.2c0-10.2,8-18.7,18.2-19.2h98.7c10.2,0.5,18.2,9,18.2,19.2c0.1,4.1,0.1,8.2,0,12.3
			c0.5,4.1-2.4,7.8-6.5,8.4c-0.7,0.1-1.3,0.1-2,0c-11,0.1-21.9,0-32.9,0c-0.7,0-1.4,0.1-2.2,0.1c-1.2,3.5-1.2,7.3,0,10.8l-0.1,0.1
			c5.6,0.8,11.2,1,16.8,0.6c52.1,3.1,95.9,40.4,107.2,91.3c2.5,12.1,3.4,24.4,2.8,36.7c-0.3,1.9,0.9,3.7,2.8,4
			c9.9,3.2,16.9,12.1,17.8,22.5c0,4.4-0.2,8.8-0.1,13.2c0,1.6-0.9,3.5,0.7,5c9.3,5.3,14.6,15.4,13.8,26.1c-0.2,4.5-0.2,8.9,0,13.4
			c0.5,7.8-2.6,10.8-10.5,10.8c-43-0.2-86-0.1-129.1-0.1H24.9c-8.9,0-10.7-1.8-10.7-10.8c0-4.5,0.1-9,0-13.4
			c-0.9-11.2,5.1-21.7,15.2-26.6c0.7-0.2,0.8-0.8,0.8-1.4C30.2,292.9,30.1,287.5,30,282.2 M356.7,296.8c1.2-4.5,1.2-9.3,0.1-13.8
			c-0.8-5.3-4.9-9.5-10.2-10.2c-1.3-1-2.8-0.6-4.2-0.6c-94.4,0-188.9,0-283.3,0c-1.4,0-2.9-0.4-4.2,0.6c-5.3,0.7-9.5,4.9-10.2,10.2
			c-1.1,4.5-1,9.3,0.1,13.8l0,0c0.9,1.2,2.2,0.7,3.4,0.7c8,0,16,0,23.9,0l189.6,0c3.3,0.6,5.6,3.7,5.3,7c0,3.5-1.9,5.7-6,6.9
			c-0.5,0-1-0.1-1.4-0.1H42.3c-1.2,0-2.4-0.3-3.5,0.6c-6,1-10.3,6.2-10.1,12.3c0.1,2.5,0.1,5.1-0.1,7.6c-0.5,3.6,0.8,4.2,4.3,4.2
			c111.3-0.1,222.7-0.1,334-0.1c0.6,0,1.2,0,1.8,0c1.9,0.2,2.5-0.4,2.4-2.4c-0.2-3.2,0-6.5-0.1-9.8c0-5.9-4.2-11-10.1-11.9
			c-0.8-0.6-1.8-0.8-2.7-0.6c-9.3,0-18.6,0-27.9,0.1c-4-1.3-5.9-3.5-5.7-7.1c-0.1-3.4,2.3-6.4,5.6-6.9c8.1,0,16.3,0.1,24.4,0.1
			C355.5,297.5,356.3,297.6,356.7,296.8L356.7,296.8L356.7,296.8z M191.3,116.3c-1.3,3.5-1.3,7.3,0,10.8h17.3
			c1.3-3.5,1.3-7.3,0-10.8H191.3 M252.9,101c0.6-9.5,0-10.2-9.4-10.2h-88c-7.9,0-8.6,0.8-8.5,8.7c0,0.5,0.1,1,0.1,1.4
			c0.6,1.4,1.9,0.7,2.8,0.7c33.4,0,66.8,0,100.2,0C251,101.7,252.2,102.4,252.9,101 M240,142.2c-1.8-0.6-3.8-0.8-5.7-0.6
			c-22.9,0-45.8,0-68.6,0c-1.9-0.2-3.9,0-5.7,0.6c-1.7,0.1-3.4,0-5.1,0.2c-21.1,2.3-40.9,11.2-56.7,25.4c-20,17.4-32.3,42.2-34,68.7
			c-0.7,5.7-0.9,11.5-0.8,17.3c-0.3,3.5,0.5,4.7,4.4,4.7c88.1-0.1,176.2-0.2,264.3-0.1h2.5c1,0,1.8-0.2,1.7-1.4
			c0.4-6.6,0.1-13.2-0.6-19.8C332.2,186,291.2,145.4,240,142.2"/>
		<path id="Trazado_58" class="st1" d="M120.4,63.1c0.1,3.9-3,7.1-6.8,7.2c-1.4,0-2.8-0.4-3.9-1.1c-3.5-2.3-6.5-5.4-8.9-8.9
			c-1.8-2.9-1.2-6.7,1.4-8.9c2.4-2.4,6.3-2.6,8.9-0.5c2.8,2.5,5.4,5.1,8,7.8C120,59.9,120.5,61.5,120.4,63.1"/>
		<path id="Trazado_59" class="st1" d="M86.8,109.8c-3.8-0.6-6.5-4.2-5.9-8c0,0,0-0.1,0-0.1c0.5-3.8,3.8-6.5,7.5-6.3
			c2.7-0.1,5.3-0.1,7.9,0c3.9-0.1,7.3,2.8,7.8,6.6c0.3,3.9-2.5,7.3-6.3,7.9L86.8,109.8"/>
		<path id="Trazado_60" class="st1" d="M302.2,109.8c-3.8-0.5-6.6-4-6.4-7.8c0.5-3.9,3.9-6.8,7.8-6.6c2.6-0.1,5.3-0.1,8,0
			c3.8-0.2,7.1,2.6,7.5,6.3c0.6,3.8-2,7.4-5.8,8.1c0,0-0.1,0-0.1,0L302.2,109.8"/>
		<path id="Trazado_61" class="st1" d="M300.2,57.6c0,1.3-0.6,2.5-1.5,3.5c-2.4,2.7-5,5.2-7.7,7.6c-2.9,2.3-7,2.1-9.5-0.6
			c-2.6-2.6-2.7-6.7-0.4-9.5c2.3-2.7,4.7-5.1,7.4-7.4c2.1-2,5.3-2.3,7.8-0.8C298.9,51.7,300.5,54.6,300.2,57.6"/>
		<path id="Trazado_62" class="st1" d="M249.3,76.2h-98.7c1.1-1,2.5-0.6,3.8-0.6c30.3,0,60.7,0,91,0
			C246.8,75.6,248.2,75.2,249.3,76.2"/>
		<path id="Trazado_63" class="st1" d="M372,300.4c-1.6-1.5-0.7-3.3-0.7-5c-0.1-4.4,0-8.8,0.1-13.2C372,288.2,372.2,294.3,372,300.4
			"/>
		<path id="Trazado_64" class="st1" d="M30,282.2c0,5.4,0.1,10.7,0.1,16c0,0.6,0,1.2-0.8,1.4C29.2,293.8,29.4,288,30,282.2"/>
		<path id="Trazado_65" class="st1" d="M240.7,127.7c-5.6,0.4-11.3,0.2-16.8-0.6C229.5,126.8,235.1,127,240.7,127.7"/>
		<path id="Trazado_66" class="st1" d="M176,127.1c-5.6,0.8-11.2,1-16.8,0.6C164.8,127,170.4,126.8,176,127.1"/>
		<path id="Trazado_67" class="st1" d="M223.9,127.1c-1.2-3.5-1.2-7.3,0-10.8V127.1"/>
		<path id="Trazado_68" class="st1" d="M176,116.3c1.2,3.5,1.2,7.3,0,10.8V116.3"/>
		<path id="Trazado_69" class="st1" d="M302.2,109.8l11-0.1C309.6,110.8,305.8,110.8,302.2,109.8"/>
		<path id="Trazado_70" class="st1" d="M86.8,109.8l11,0.1C94.1,110.8,90.3,110.8,86.8,109.8"/>
		<path id="Trazado_71" class="st1" d="M64.2,236.5c0,5.7,0.2,11.4-0.1,17c-0.2,3.4,0.9,4.2,4.2,4.2c53.2-0.1,106.4-0.1,159.6-0.1
			c34.6,0,69.2,0,103.7,0.1c3.4,0,4.3-1,4.2-4.2c-0.3-5.4-0.1-10.9-0.1-16.3c0.8,6.6,1,13.2,0.6,19.8c0,1.1-0.8,1.4-1.7,1.4h-2.5
			c-88.1,0-176.2,0-264.3,0.1c-3.9,0-4.7-1.2-4.4-4.7C63.3,248,63.5,242.2,64.2,236.5"/>
		<path id="Trazado_72" class="st1" d="M346.5,272.8c-2,0-4.1,0.1-6.1,0.1H56.3c-0.5,0-1-0.1-1.4-0.1c1.3-1,2.8-0.6,4.2-0.6
			c94.4,0,188.9,0,283.3,0C343.7,272.1,345.3,271.8,346.5,272.8"/>
		<path id="Trazado_73" class="st1" d="M261,311.4c-1,0.9-2.3,0.6-3.5,0.6c-72.7,0-145.3,0-218,0.1c-0.2,0-0.5-0.1-0.7-0.1
			c1-0.9,2.3-0.6,3.5-0.6c72.4,0,144.8,0,217.2,0C260,311.3,260.5,311.4,261,311.4"/>
		<path id="Trazado_74" class="st1" d="M44.7,296.8h213.2c1.3,0,2.7-0.4,3.8,0.7l-189.7,0c-8,0-16,0-23.9,0
			C46.9,297.5,45.6,298,44.7,296.8"/>
		<path id="Trazado_75" class="st1" d="M147.1,100.9h105.8c-0.6,1.4-1.9,0.7-2.8,0.7c-33.4,0-66.8,0-100.2,0
			C149,101.7,147.7,102.3,147.1,100.9"/>
		<path id="Trazado_76" class="st1" d="M240,142.2c-5.9,0-11.8,0.1-17.7,0.1c-20,0.1-40.1,0.1-60.1,0.1c-0.7,0-1.4-0.1-2.1-0.2
			c1.8-0.6,3.8-0.8,5.7-0.6c22.9,0,45.8,0,68.6,0C236.2,141.4,238.1,141.6,240,142.2"/>
		<path id="Trazado_77" class="st1" d="M361.1,311.9l-28.2,0.1c-0.8,0.1-1.7-0.1-2.4-0.6c9.3,0,18.6,0,27.9-0.1
			C359.3,311.1,360.3,311.4,361.1,311.9"/>
		<path id="Trazado_78" class="st1" d="M330.4,297.4c2.3-0.8,4.7-1,7.1-0.6c6.4-0.1,12.8,0,19.2,0c-0.4,0.8-1.2,0.7-1.9,0.7
			C346.7,297.5,338.5,297.4,330.4,297.4"/>
		<path id="Trazado_79" class="st1" d="M44.6,283l0.1,13.8C43.6,292.2,43.5,287.5,44.6,283"/>
		<path id="Trazado_80" class="st1" d="M356.7,296.8c0-4.6,0.1-9.2,0.1-13.8C357.9,287.5,357.8,292.2,356.7,296.8"/>
		<path id="Trazado_81" class="st1" d="M208.6,127.1v-10.8C209.9,119.7,209.9,123.6,208.6,127.1"/>
		<path id="Trazado_82" class="st1" d="M191.3,116.3v10.8C190.1,123.6,190.1,119.8,191.3,116.3"/>
		<path id="Trazado_83" class="st1" d="M163.9,156.1h1.8c4.1-0.2,7.7,3,7.9,7.1c0,0,0,0.1,0,0.1c0,4.1-3.3,7.3-7.4,7.3
			c-0.1,0-0.2,0-0.4,0c-17.1,0.1-33.7,6.1-46.8,17.1c-14.4,11.8-23.7,28.8-25.8,47.3c-0.1,0.8-0.3,1.7-0.5,2.5
			c-0.5,3.9-4.1,6.8-8,6.3c-3.9-0.5-6.8-4.1-6.3-8c0-0.2,0.1-0.4,0.1-0.6c3.2-33.2,25.1-61.7,56.5-73.3
			C144.2,158.3,154,156.4,163.9,156.1"/>
		<path id="Trazado_84" class="st1" d="M294.8,311.5c-3.8,0.1-7-2.8-7.2-6.6c0-0.2,0-0.5,0-0.7c0-3.9,3.2-7.1,7.2-7.1
			c4.1,0.1,7.3,3.4,7.3,7.4C302,308.5,298.7,311.6,294.8,311.5"/>
	</g>
</g>
</svg>
