<?xml version="1.0" encoding="utf-8"?>
<!-- Generator: Adobe Illustrator 26.5.0, SVG Export Plug-In . SVG Version: 6.00 Build 0)  -->
<svg version="1.1" id="Capa_1" xmlns="http://www.w3.org/2000/svg" xmlns:xlink="http://www.w3.org/1999/xlink" x="0px" y="0px"
	 viewBox="0 0 400 400" style="enable-background:new 0 0 400 400;" xml:space="preserve">
<style type="text/css">
	.st0{fill:none;}
	.st1{fill:#ED1C24;}
</style>
<rect x="12.4" y="12.6" class="st0" width="375.2" height="374.7"/>
<g>
	<g id="Grupo_43">
		<path id="Trazado_85" class="st1" d="M382.5,206.5c4,0.8,5.1,3.6,5.1,7.2c-0.7,19.4-13.9,36-32.6,41c-2.7,0.7-5.5,1.1-8.2,1.6
			c1,2.4,1.9,4.9,2.6,7.4c2.6,9.2-0.6,19-8.1,24.9c-25,20.8-50.1,41.5-75.2,62.3c-9.1,7.7-20.7,11.8-32.6,11.6
			c-47.5-0.1-94.9,0-142.4-0.1c-3,0-4,0.7-3.8,3.8c0.3,4.8,0.1,9.5,0.1,14.3c0.4,3.5-2.1,6.6-5.6,6.9c-0.5,0-1,0-1.5,0
			c-21.7,0-43.4,0-65.2,0.1c-2.2,0-2.7-0.7-2.5-2.7c0.2-3.1-1-7.3,0.6-9.2c1.7-2,5.9-0.6,9.1-0.6c16.4-0.1,32.7-0.1,49,0
			c2.7,0,3.7-0.4,3.7-3.5c-0.1-29-0.1-58.1,0-87.1c0-2.9-0.9-3.3-3.5-3.3c-18.5,0.1-37.1,0-55.6,0.1c-2.4,0-3.5-0.4-3.2-3.1
			c0.3-3-0.9-7,0.6-8.8c1.6-2,5.7-0.6,8.7-0.6c18.7-0.1,37.3-0.1,56,0c2.1-0.3,4.2-0.1,6.1,0.7c0.9,0.5,1.6,0,2.3-0.5
			c4.8-4,9.7-8,15.2-12.6c-2.8,0-4.7,0-6.6,0c-15.1-0.4-30.3,1-45.3-0.7c-18.3-2.9-32.8-17.1-36.2-35.3c-0.5-2.5-0.8-5.1-0.7-7.6
			c-0.1-3.1,2.1-5.7,5.1-6.1c5.8,0,11.5,0.1,17.3,0c0.8,0,2,0.5,2.5-0.8c0.6-75.7,53.2-141.1,127-158c6.4-1.6,12.9-2.6,19.4-3.1
			c1.5,0.4,3.1,0.2,4.6-0.5l4.9-0.2c1.1-2.6,1.4-5.5,0.7-8.3c0.6-3.5,0.4-7.1-0.7-10.5l-11.6-0.2V12.7h36.5v12.2l-11.6,0.2
			c-1.1,2.6-1.4,5.6-0.7,8.3c-0.6,3.5-0.4,7.1,0.7,10.5l5,0.2c1.4,0.7,3,0.9,4.6,0.5c29.9,2.8,58.4,14,82.1,32.4
			c31.7,23.9,53.4,58.6,61.1,97.5c2,10.3,3.1,20.7,3.2,31.1c0.5,1.3,1.6,0.8,2.5,0.8C371,206.5,376.7,206.5,382.5,206.5
			 M126.9,243.7l83.6,0c0.5,0,1,0.1,1.5,0.1c43.6,0,87.3,0,130.9,0c1.3,0.1,2.7-0.1,3.9-0.6c1.5,0,2.9-0.2,4.3-0.5
			c11.7-2.7,20.7-11.9,23.3-23.6c-5.5-1.3-11.2-1.4-16.8-0.3c-1.2,0-2.4,0.1-3.7,0.1H46.4c-1.2,0-2.4-0.1-3.7-0.1
			c-4.6-0.7-9.3-0.9-14-0.6c-1-0.1-2.2-0.6-2.8,0.9c0.2,0.8,0.4,1.6,0.6,2.4c3.7,12.1,14.4,20.6,26.9,21.6c0.9,0.3,1.9,0.5,2.8,0.6
			C79.9,243.8,103.4,243.8,126.9,243.7 M88.2,349.8c0.5,0,1,0.1,1.4,0.1h145.6c1.3,0.2,2.7,0,3.9-0.6c7.5-0.6,14.5-3.8,19.9-9
			c13.6-11.2,27.2-22.5,40.9-33.8c11.1-9.2,22.2-18.3,33.2-27.5c5.1-4,6-11.5,2-16.6c-2-2.5-4.8-4.1-8-4.5
			c-3.8-0.2-7.5,1.1-10.4,3.7c-18,12.9-36,25.7-54.1,38.6c-5.4,4.4-11.1,8.2-17.1,11.6c-11.9,0-23.9,0-35.8,0
			c-14.2,0-28.5,0.1-42.7,0.1c-10.2-1-17.7-10-16.7-20.2c0.8-8.6,7.5-15.5,16-16.6l42,0.1c0.7,0.1,1.5-0.1,2-0.6
			c3.6-0.3,6.7-2.7,7.9-6.2c1.2-3.2,0.4-6.8-2-9.1c-2.1-2.2-5.1-3.3-8.2-3.1c-26.8,0-53.6,0-80.4,0c-3.8-0.1-7.5,1.1-10.5,3.5
			c-9.8,8-19.4,16.2-29.1,24.3c-1,0.7-0.6,1.8-0.6,2.7c0,20.1,0,40.1,0,60.2C87.4,347.9,86.8,349.2,88.2,349.8 M211.2,287.1
			l-40.9-0.1c-0.9-0.1-1.7,0.1-2.4,0.7c-3.3,0.5-5.5,3.6-4.9,6.9c0.4,2.5,2.4,4.5,4.9,5c1,1,2.3,0.7,3.5,0.7c22.5,0,45,0,67.5,0
			c1,0,2.2,0.4,3.1-0.6c12-8.5,24-17,36-25.5c8.1-5.7,16.1-11.5,24.8-17.7h-73.2c0.7,1.9,1.2,3.8,1.4,5.7c0,2.2,0,4.5,0.1,6.7
			C229.6,278.8,221.3,286.5,211.2,287.1 M350.1,205.6c-0.2-4.9-0.3-9.8-0.8-14.6c-5.3-49.5-34.7-93.3-78.6-116.8
			c-29.4-16.2-63.4-21.6-96.4-15.5c-40.4,6.8-76.1,30-98.7,64.3c-16.7,24.3-25.5,53.1-25.5,82.6c0.8,1.5,2.1,0.9,3.3,0.9
			c97.8,0,195.6,0,293.5,0C348,206.5,349.4,207,350.1,205.6"/>
		<path id="Trazado_86" class="st1" d="M44,325c10.2,0,18.5,8.2,18.5,18.4c0,0.1,0,0.3,0,0.4c-0.1,10.2-8.4,18.4-18.5,18.6
			c-10.4-0.1-18.7-8.5-18.9-18.8C25.2,333.2,33.7,324.9,44,325 M43.8,349.8c3.3-0.1,6-2.7,6.2-6c0.2-3.3-2.3-6.2-5.7-6.4
			c-0.1,0-0.2,0-0.3,0c-3.3,0-6.1,2.5-6.3,5.8C37.8,346.7,40.4,349.6,43.8,349.8"/>
		<path id="Trazado_87" class="st1" d="M37.5,205.7c-0.5,1.3-1.6,0.8-2.5,0.8c-5.8,0-11.5,0-17.3,0c3.2-0.8,6.6-1.1,9.9-0.6
			C31,205.7,34.2,205.8,37.5,205.7"/>
		<path id="Trazado_88" class="st1" d="M382.5,206.5c-5.8,0-11.5,0.1-17.3,0c-0.8,0-2,0.5-2.5-0.8c5.3,0,10.6,0,15.9,0.1
			C380,205.8,381.4,205.4,382.5,206.5"/>
		<path id="Trazado_89" class="st1" d="M206.8,43.9c-1.1-3.4-1.4-7-0.7-10.5c-0.6-2.8-0.4-5.7,0.7-8.3V43.9"/>
		<path id="Trazado_90" class="st1" d="M193.5,25.1c1.1,3.4,1.4,7,0.7,10.5c0.6,2.8,0.4,5.7-0.7,8.3L193.5,25.1"/>
		<path id="Trazado_91" class="st1" d="M218.4,24.9V12.6C219.7,16.6,219.7,20.9,218.4,24.9"/>
		<path id="Trazado_92" class="st1" d="M181.9,12.6v12.2C180.6,20.9,180.6,16.6,181.9,12.6"/>
		<path id="Trazado_93" class="st1" d="M216.3,44.6c-1.5,0.4-3.1,0.2-4.6-0.5C213.3,43.8,214.9,43.9,216.3,44.6"/>
		<path id="Trazado_94" class="st1" d="M188.5,44.2c-1.4,0.7-3,0.9-4.6,0.5C185.4,44,187,43.8,188.5,44.2"/>
		<path id="Trazado_95" class="st1" d="M50.2,205.6c1.5,0.1,2.9,0.2,4.4,0.2h291.2c1.5,0,2.9-0.1,4.4-0.2c-0.8,1.5-2.1,0.9-3.3,0.9
			c-97.8,0-195.6,0-293.5,0C52.3,206.5,50.9,207.1,50.2,205.6"/>
		<path id="Trazado_96" class="st1" d="M88.2,349.2c49.3,0,98.7,0,148,0c1,0,1.9,0.1,2.9,0.1c-1.2,0.6-2.6,0.8-3.9,0.6H89.7
			c-0.5,0-1-0.1-1.5-0.1C88.2,349.6,88.2,349.4,88.2,349.2"/>
		<path id="Trazado_97" class="st1" d="M210.3,243.2c1.6-0.1,3.2-0.1,4.8-0.1c43.5,0,87.1-0.1,130.6-0.1c0.4,0,0.7,0.1,1.1,0.2
			c-1.2,0.6-2.6,0.8-3.9,0.6H211.9c-0.5,0-1-0.1-1.5-0.1L210.3,243.2"/>
		<path id="Trazado_98" class="st1" d="M210.3,243.2l0.1,0.5l-83.6,0c0-0.2,0.1-0.3,0.1-0.5L210.3,243.2"/>
		<path id="Trazado_99" class="st1" d="M245.6,311.9c-1,0.7-2.3,0.9-3.5,0.7c-23.8,0-47.7,0-71.5,0c-1.2,0.2-2.4,0-3.5-0.6
			c14.2,0,28.5-0.1,42.7-0.1L245.6,311.9"/>
		<path id="Trazado_100" class="st1" d="M167.9,299.5l74.1,0.1c-0.9,1-2,0.6-3.1,0.6c-22.5,0-45,0-67.5,0
			C170.2,300.2,168.9,300.5,167.9,299.5"/>
		<path id="Trazado_101" class="st1" d="M127,243.2c0,0.2-0.1,0.3-0.1,0.5c-23.5,0-47,0.1-70.5,0.1c-1-0.1-1.9-0.3-2.8-0.6
			c17.8,0,35.5-0.1,53.3-0.1C113.6,243.1,120.3,243.2,127,243.2"/>
		<path id="Trazado_102" class="st1" d="M88.2,349.2c-0.1,0.2-0.1,0.4,0,0.7c-1.3-0.7-0.8-1.9-0.8-2.9c0-20.1,0-40.1,0-60.2
			c0-0.9-0.4-2,0.6-2.7c0,20.1,0.1,40.3,0.1,60.4C88.1,346,88.2,347.6,88.2,349.2"/>
		<path id="Trazado_103" class="st1" d="M166.4,275.2c0.9-0.3,1.9-0.5,2.8-0.6c13.8,0,27.5,0.1,41.3,0.1c-0.6,0.5-1.3,0.7-2,0.6
			L166.4,275.2"/>
		<path id="Trazado_104" class="st1" d="M211.2,287.1c-0.9,0.6-2.1,0.8-3.1,0.6c-13.4,0-26.8,0-40.2,0c0.6-0.6,1.5-0.8,2.4-0.7
			L211.2,287.1"/>
		<path id="Trazado_105" class="st1" d="M374.3,219.1l-16.8-0.3C363,217.7,368.8,217.8,374.3,219.1"/>
		<path id="Trazado_106" class="st1" d="M42.8,218.8L26,219.1c0.6-1.5,1.9-0.9,2.8-0.9C33.4,217.9,38.1,218.1,42.8,218.8"/>
		<path id="Trazado_107" class="st1" d="M230.9,262.1c1.1,2.1,1.1,4.6,0.1,6.7L230.9,262.1"/>
		<path id="Trazado_108" class="st1" d="M187.6,82c-19.9,1.9-39,8.7-55.7,19.6c-5.5,3.6-10.7,7.6-15.6,12c-1.5,1.4-2.2,1.1-3.4-0.2
			c-2.1-2.5-6-4.8-6.1-7.3c-0.1-2.7,4.2-4.5,6.7-6.6c19.2-15.8,42.4-26,67.1-29.3c2.1-0.3,4.1-0.6,6.1-0.9c2,0.4,4.1,0.2,6.1-0.5
			c4.8-0.2,7.3,2.1,7.3,6.8v0.4c0,3.3-1.7,5.1-5.1,5.2C192.6,81,190,81.2,187.6,82"/>
		<path id="Trazado_109" class="st1" d="M97.4,115c2.8,2.5,5.4,4.9,8.2,7.2c1.3,1.1,0.6,1.8-0.1,2.7c-2.8,3.6-5.7,7.2-8.5,11
			c-0.9,1.2-1.4,1.4-2.9,0.6c-9.3-5.3-9.5-5.7-2.9-14C93.1,120.1,95.2,117.7,97.4,115"/>
		<path id="Trazado_110" class="st1" d="M187.6,82c2.4-0.8,4.9-1,7.4-0.6C192.7,82.2,190.1,82.4,187.6,82"/>
		<path id="Trazado_111" class="st1" d="M192.9,69c-1.9,0.7-4,0.9-6.1,0.5C188.8,68.8,190.9,68.6,192.9,69"/>
	</g>
</g>
</svg>
